# Blender v2.92.0 OBJ File: ''
# www.blender.org
mtllib shard.mtl
o Cube_Cube.001
v -0.007925 -0.007925 0.994820
v -0.007925 0.007925 0.994820
v 0.007925 -0.007925 0.994820
v 0.007925 0.007925 0.994820
v -0.007925 -0.007925 -0.994820
v -0.007925 0.007925 -0.994820
v 0.007925 -0.007925 -0.994820
v 0.007925 0.007925 -0.994820
v -0.172334 -0.172334 0.000000
v -0.172334 0.172334 0.000000
v 0.172334 -0.172334 0.000000
v 0.172334 0.172334 0.000000
vt 0.375000 0.625000
vt 0.625000 0.625000
vt 0.625000 0.750000
vt 0.375000 0.750000
vt 0.625000 1.000000
vt 0.375000 1.000000
vt 0.125000 0.625000
vt 0.125000 0.750000
vt 0.875000 0.625000
vt 0.875000 0.750000
vt 0.375000 0.000000
vt 0.625000 0.000000
vt 0.625000 0.125000
vt 0.375000 0.125000
vt 0.375000 0.750000
vt 0.625000 0.750000
vt 0.375000 1.000000
vt 0.625000 1.000000
vt 0.125000 0.750000
vt 0.875000 0.750000
vt 0.375000 0.000000
vt 0.625000 0.000000
vn 0.9866 0.0000 0.1631
vn 0.0000 0.0000 1.0000
vn 0.0000 -0.9866 0.1631
vn 0.0000 0.9866 0.1631
vn -0.9866 0.0000 0.1631
vn 0.9866 0.0000 -0.1631
vn 0.0000 0.0000 -1.0000
vn 0.0000 -0.9866 -0.1631
vn 0.0000 0.9866 -0.1631
vn -0.9866 0.0000 -0.1631
usemtl None
s off
f 11/1/1 12/2/1 4/3/1 3/4/1
f 3/4/2 4/3/2 2/5/2 1/6/2
f 9/7/3 11/1/3 3/4/3 1/8/3
f 12/2/4 10/9/4 2/10/4 4/3/4
f 1/11/5 2/12/5 10/13/5 9/14/5
f 11/1/6 7/15/6 8/16/6 12/2/6
f 7/15/7 5/17/7 6/18/7 8/16/7
f 9/7/8 5/19/8 7/15/8 11/1/8
f 12/2/9 8/16/9 6/20/9 10/9/9
f 5/21/10 9/14/10 10/13/10 6/22/10
