# Blender v2.92.0 OBJ File: ''
# www.blender.org
mtllib torus.mtl
o Circle
v 0.000000 0.000000 -0.500000
v -0.097545 0.000000 -0.490393
v -0.191342 0.000000 -0.461940
v -0.277785 0.000000 -0.415735
v -0.353553 0.000000 -0.353553
v -0.415735 0.000000 -0.277785
v -0.461940 0.000000 -0.191342
v -0.490393 0.000000 -0.097545
v -0.500000 0.000000 -0.000000
v -0.490393 0.000000 0.097545
v -0.461940 0.000000 0.191342
v -0.415735 0.000000 0.277785
v -0.353553 0.000000 0.353553
v -0.277785 0.000000 0.415735
v -0.191342 0.000000 0.461940
v -0.097545 0.000000 0.490393
v 0.000000 0.000000 0.500000
v 0.097545 0.000000 0.490393
v 0.191342 0.000000 0.461940
v 0.277785 0.000000 0.415735
v 0.353554 0.000000 0.353553
v 0.415735 0.000000 0.277785
v 0.461940 0.000000 0.191341
v 0.490393 0.000000 0.097545
v 0.500000 0.000000 -0.000000
v 0.490393 0.000000 -0.097546
v 0.461940 0.000000 -0.191342
v 0.415734 0.000000 -0.277786
v 0.353553 0.000000 -0.353554
v 0.277785 0.000000 -0.415735
v 0.191341 0.000000 -0.461940
v 0.097544 0.000000 -0.490393
v -0.081429 0.000000 -0.409373
v 0.000000 0.000000 -0.417393
v -0.159729 0.000000 -0.385621
v -0.231891 0.000000 -0.347049
v -0.295141 0.000000 -0.295141
v -0.347049 0.000000 -0.231891
v -0.385621 0.000000 -0.159729
v -0.409373 0.000000 -0.081429
v -0.417393 0.000000 -0.000000
v -0.409373 0.000000 0.081429
v -0.385621 0.000000 0.159729
v -0.347049 0.000000 0.231891
v -0.295141 0.000000 0.295141
v -0.231891 0.000000 0.347049
v -0.159729 0.000000 0.385621
v -0.081429 0.000000 0.409373
v 0.000000 0.000000 0.417393
v 0.081429 0.000000 0.409373
v 0.159730 0.000000 0.385621
v 0.231891 0.000000 0.347049
v 0.295141 0.000000 0.295141
v 0.347050 0.000000 0.231891
v 0.385621 0.000000 0.159729
v 0.409373 0.000000 0.081429
v 0.417393 0.000000 -0.000000
v 0.409373 0.000000 -0.081430
v 0.385621 0.000000 -0.159730
v 0.347049 0.000000 -0.231891
v 0.295141 0.000000 -0.295142
v 0.231891 0.000000 -0.347050
v 0.159729 0.000000 -0.385621
v 0.081429 0.000000 -0.409373
vt 0.418571 0.909373
vt 0.500000 0.917393
vt 0.500000 1.000000
vt 0.402455 0.990393
vt 0.340271 0.885621
vt 0.308658 0.961940
vt 0.268109 0.847049
vt 0.222215 0.915735
vt 0.204859 0.795141
vt 0.146447 0.853553
vt 0.152951 0.731891
vt 0.084265 0.777785
vt 0.114379 0.659729
vt 0.038060 0.691342
vt 0.090627 0.581429
vt 0.009607 0.597545
vt 0.082607 0.500000
vt 0.000000 0.500000
vt 0.090627 0.418571
vt 0.009607 0.402455
vt 0.114379 0.340271
vt 0.038060 0.308658
vt 0.152951 0.268109
vt 0.084265 0.222215
vt 0.204859 0.204859
vt 0.146447 0.146447
vt 0.268109 0.152951
vt 0.222215 0.084265
vt 0.340271 0.114379
vt 0.308658 0.038060
vt 0.418571 0.090627
vt 0.402455 0.009607
vt 0.500000 0.082607
vt 0.500000 0.000000
vt 0.581429 0.090627
vt 0.597545 0.009607
vt 0.659729 0.114379
vt 0.691342 0.038060
vt 0.731891 0.152951
vt 0.777785 0.084265
vt 0.795142 0.204859
vt 0.853554 0.146447
vt 0.847050 0.268109
vt 0.915735 0.222215
vt 0.885621 0.340271
vt 0.961940 0.308659
vt 0.909373 0.418571
vt 0.990393 0.402455
vt 0.917393 0.500000
vt 1.000000 0.500000
vt 0.909373 0.581430
vt 0.990393 0.597546
vt 0.885620 0.659730
vt 0.961940 0.691342
vt 0.847049 0.731892
vt 0.915734 0.777786
vt 0.795141 0.795142
vt 0.853553 0.853554
vt 0.731891 0.847050
vt 0.777785 0.915735
vt 0.659729 0.885621
vt 0.691341 0.961940
vt 0.581429 0.909373
vt 0.597544 0.990393
vn 0.0000 1.0000 0.0000
usemtl None
s off
f 33/1/1 34/2/1 1/3/1 2/4/1
f 35/5/1 33/1/1 2/4/1 3/6/1
f 36/7/1 35/5/1 3/6/1 4/8/1
f 37/9/1 36/7/1 4/8/1 5/10/1
f 38/11/1 37/9/1 5/10/1 6/12/1
f 39/13/1 38/11/1 6/12/1 7/14/1
f 40/15/1 39/13/1 7/14/1 8/16/1
f 41/17/1 40/15/1 8/16/1 9/18/1
f 42/19/1 41/17/1 9/18/1 10/20/1
f 43/21/1 42/19/1 10/20/1 11/22/1
f 44/23/1 43/21/1 11/22/1 12/24/1
f 45/25/1 44/23/1 12/24/1 13/26/1
f 46/27/1 45/25/1 13/26/1 14/28/1
f 47/29/1 46/27/1 14/28/1 15/30/1
f 48/31/1 47/29/1 15/30/1 16/32/1
f 49/33/1 48/31/1 16/32/1 17/34/1
f 50/35/1 49/33/1 17/34/1 18/36/1
f 51/37/1 50/35/1 18/36/1 19/38/1
f 52/39/1 51/37/1 19/38/1 20/40/1
f 53/41/1 52/39/1 20/40/1 21/42/1
f 54/43/1 53/41/1 21/42/1 22/44/1
f 55/45/1 54/43/1 22/44/1 23/46/1
f 56/47/1 55/45/1 23/46/1 24/48/1
f 57/49/1 56/47/1 24/48/1 25/50/1
f 58/51/1 57/49/1 25/50/1 26/52/1
f 59/53/1 58/51/1 26/52/1 27/54/1
f 60/55/1 59/53/1 27/54/1 28/56/1
f 61/57/1 60/55/1 28/56/1 29/58/1
f 62/59/1 61/57/1 29/58/1 30/60/1
f 63/61/1 62/59/1 30/60/1 31/62/1
f 64/63/1 63/61/1 31/62/1 32/64/1
f 34/2/1 64/63/1 32/64/1 1/3/1
